<?xml version="1.0" encoding="utf-8"?>
<!-- Generator: Adobe Illustrator 27.5.0, SVG Export Plug-In . SVG Version: 6.00 Build 0)  -->
<svg version="1.1" id="_x3C_Layer_x3E_" xmlns="http://www.w3.org/2000/svg" xmlns:xlink="http://www.w3.org/1999/xlink" x="0px"
	 y="0px" viewBox="0 0 2000 2134.118" style="enable-background:new 0 0 2000 2134.118;" xml:space="preserve">
<g>
	<rect x="0.149" y="165.185" style="fill:#B9DCFF;" width="1999.851" height="1841.237"/>
	<g>
		<path style="fill:#4B83DB;" d="M0.148,1861.286c10.702,24.249,29.5,40.415,58.122,45.156l1435.586,15.455
			c189.917,31.432,310.736-260.543,168.559-407.744c-1.233-1.268-185.816-152.512-692.122-268.306
			c-190.296-43.532-614.289-12.836-718.907,51.77c-0.853,0.533-27.598-43.873-28.487-43.315
			c-99.734,62.27-187.279,129.121-222.752,282.249V1861.286z"/>
		<path style="fill:#FABBA5;" d="M785.777,1217.278c35.751-10.945,70.315-26.861,83.16-63.751
			c25.864-74.286,30.29-222.785,56.921-316.736c7.092-25.02,26.509-77.845,25.766-79.718
			c2.797,1.322,382.144,183.272,313.231,297.642c-3.071,5.108-6.021,10.544-8.81,16.251
			c-18.206,37.101-30.402,85.664-38.593,135.319c-4.887,29.704-7.626,58.462-9.023,84.779c26.783,8.153,53.527,35.951,81.761,44.802
			c1.299,23.42-22.813,286.021-261.804,246.477c-196.023-32.434-302.931-329.256-304.981-356.783
			C740.091,1224.927,765.381,1223.522,785.777,1217.278z"/>
		<path style="fill:#ED938B;" d="M912.251,1002.6c-0.591,22.275-28.387,130.201-31.932,155.236
			c91.003,439.602,406.605,242.417,409.871,244.537c-64.631-49.152-83.378-69.757-64.044-114.263
			C1138.891,1216.642,967.578,1003.374,912.251,1002.6z"/>
		<g>
			<g>
				<g>
					<path style="fill:#752D4B;" d="M1592.534,535.683c0,0-13.633,180.113-43.329,226.707
						c-29.696,46.594-27.706-220.818-27.706-220.818L1592.534,535.683z"/>
					<path style="fill:#FABBA5;" d="M880.25,1153.818c20.085,59.395,133.779,185.907,211.638,214.12
						c51.316,18.595,129.091,50.671,181.894,29.053c44.75-18.321,208.466-228.323,212.484-355.768
						c0.78-24.726,17.977-125.131,43.492-189.332c42.417-106.73,12.279-307.121,12.279-307.121
						c-250.656-298.645-593.223-44.343-645.035,72.986C845.197,735.054,802.501,923.9,880.25,1153.818z"/>
					<path style="fill:#752D4B;" d="M1024.782,777.335c-15.82,4.416-18.934-8.965-6.119-19.573
						c30.434-25.195,68.779-51.26,170.181-32.601c95.248,17.526,93.639,72.78,39.881,70.065
						C1181.619,792.846,1129.816,748.018,1024.782,777.335z"/>
					<path style="fill:#752D4B;" d="M1501.812,853.266c7.314,4.498,18.699-22.504,14.922-32.035
						c-8.972-22.637-30.779-45.192-83.224-35.91c-57.587,10.192-65.055,43.57-34.792,44.016
						C1425.235,829.729,1453.255,823.402,1501.812,853.266z"/>
					<path style="fill:#752D4B;" d="M1350.065,906.246c15.34-9.92,44.587-26.288,72.85-21.097
						c6.113,1.052,12.132,3.122,17.978,6.539c10.062,5.817,21.341,20.604,34.06,32.197c4.602,4.229-42.701-96.327-116.14-31.919
						c-2.472,2.183-5.061,4.546-7.643,7.188c-2.787,2.871-5.707,5.987-8.62,9.383
						C1335.48,916.765,1339.526,913.017,1350.065,906.246z"/>
					<path style="fill:#752D4B;" d="M1363.469,888.687c-0.473,1.969-2.433,10.131-2.156,18.871
						c0.186,5.871,2.331,13.398,7.425,19.479c6.266,7.544,20.223,13.673,29.885,12.592c9.647-1.015,19.044-3.2,26.321-10.06
						c8.734-8.245,13.253-24.305,8.166-35.105c-1.624-3.444-3.246-6.888-4.51-9.343c-1.046-2.264-1.748-3.751-1.748-3.751
						l-28.431-1.276l-14.833-2.627l-5.601,0.239l-4.995,5.136C1370.732,885.076,1365.837,885.994,1363.469,888.687z"/>
					<path style="fill:#752D4B;" d="M1098.617,854.887c-5.142,21.408,7.242,42.731,27.663,47.636
						c20.422,4.905,41.138-8.469,46.28-29.877c1.69-7.038,1.485-14.038-0.295-20.489c-1.683-6.243-4.852-11.946-9.199-16.543
						c-13.93-3.469-27.715-6.44-40.728-8.824c-8.66,3.543-16.022,10.269-20.453,19.152
						C1100.48,848.724,1099.381,851.703,1098.617,854.887z"/>
					<path style="fill:#752D4B;" d="M1046.82,838.306c-9.647,14.689,40.698-32.403,121.825,5.466
						c19.924,9.3,37.716,27.494,51.24,45.183c4.888,6.393,7.205-1.203,3.044-8.14c-15.541-25.915-32.09-45.595-64.04-56.876
						C1104.062,804.58,1050.757,832.311,1046.82,838.306z"/>
					<g>
						<path style="fill:#CF8171;" d="M1355.853,824.431c-29.17,6.933-48.596,33.449-55.524,62.78
							c-7.696,32.586,1.493,66.257,13.165,96.094c7.946,20.313,31.519,54.427,14.604,76.483
							c-7.447,9.71-20.743,12.198-31.641,14.434c-15.375,3.156-30.881,4.217-46.454,3.723c-4.596-0.146-4.78-7.632-0.161-7.486
							c17.494,0.556,34.929-0.804,52.088-5.081c14.414-3.593,26.085-10.298,24.165-28.132c-1-9.283-4.994-17.637-8.643-25.997
							c-11.608-26.595-22.855-53.686-26.144-83.143c-5.065-45.36,15.495-99.643,62.543-110.825
							C1358.359,816.211,1360.383,823.354,1355.853,824.431L1355.853,824.431z"/>
					</g>
					<path style="fill:#752D4B;" d="M688.151,848.815c20.309,234.763,165.619,225.043,165.619,225.043
						c-35.973-192.992,22.583-343.995,36.673-325.263c18.136,24.111,67.129,94.073,69.882,56.418
						c2.674-37.604-18.474-98.976,45.122-166.095c63.597-67.118,48.091-172.115,48.091-172.115s0.282,0.207,0.907,0.634
						c0.172,0.111,0.344,0.222,0.563,0.413c7.256,5.63-200.937-200.549-200.937-200.549
						C690.48,319.011,673.654,681.239,688.151,848.815z"/>
					<path style="fill:#5DCBCF;" d="M967.932,905.144c0.087-2.168,167.078,37.654,254.441,36.846s115.71,10.106,143.705,34.514
						c27.995,24.407,120.188,64.718,120.188,64.718s4.489,125.999-44.69,224.384c-49.178,98.384-159.321,159.549-235.813,145.664
						c-224.364-40.728-338.175-191.004-351.993-337.412C853.77,1073.858,961.582,1063.979,967.932,905.144z"/>
					<g>
						<path style="fill:#5DCBCF;" d="M996.978,912.072c-19.387-17.812-25.685-44.126-32.962-68.434
							c-7.567-25.277-17.387-51.768-38.492-68.938c-5.021-4.085-12.052-4.91-16.962,0c-4.22,4.22-5.05,12.854,0,16.962
							c20.073,16.331,27.399,41.568,34.416,65.454c7.64,26.005,16.504,53.053,37.038,71.918
							C991.367,939.464,1008.376,922.544,996.978,912.072L996.978,912.072z"/>
					</g>
					<g>
						<path style="fill:#5DCBCF;" d="M817.828,940.378c12.354,59.275,22.873,119.949,44.988,176.569
							c2.355,6.03,8.045,10.221,14.754,8.377c5.753-1.581,10.747-8.687,8.377-14.754c-22.114-56.62-32.634-117.293-44.988-176.569
							c-1.322-6.344-8.793-10.016-14.755-8.377C819.623,927.432,816.501,934.015,817.828,940.378L817.828,940.378z"/>
					</g>
					<g>
						<path style="fill:#FABBA5;" d="M933.27,834.321c0,0-36.03-134.253-114.048-98.891c-78.019,35.362-33.353,146.11-16.72,188.47
							c17.804,45.344,33.448,49.428,84.264,48.381C937.581,971.234,933.27,834.321,933.27,834.321z"/>
						<g>
							<path style="fill:#EF9F8A;" d="M892.243,963.676c-22.468,24.849-58.922,14.069-77.288-9.124
								c-11.504-14.527-17.871-32.673-23.349-50.469c-6.599-21.438-12.627-43.279-15.415-65.734
								c-4.655-37.496,0.647-85.913,38.356-103.88c37.133-17.693,75.792,4.042,94.031,38.239c2.385,4.472-4.218,8.756-6.612,4.268
								c-16.96-31.799-54.129-52.984-88.192-33.243c-34.239,19.843-34.372,68.888-28.519,103.447
								c5.041,29.764,13.11,63.024,27.364,89.358c13.736,25.378,49.454,48.92,74.122,21.638
								C890.179,954.374,895.689,959.864,892.243,963.676L892.243,963.676z"/>
						</g>
						<g>
							<path style="fill:#EF9F8A;" d="M858.148,768.486c10.009,7.415,19.23,16.533,22.907,29.204
								c4.276,14.74-0.842,24.125-7.732,36.565c-13.007,23.484,10.157,34.388,18.373,53.283c4.656,10.708,3.943,22.333-4.125,31.087
								c-3.47,3.765-8.983-1.723-5.501-5.501c18.946-20.556-22.418-44.914-21.181-67.769c0.514-9.49,6.697-14.525,10.814-22.422
								c9.833-18.862-3.29-36.953-17.354-47.373C850.4,772.635,854.142,765.519,858.148,768.486L858.148,768.486z"/>
						</g>
					</g>
					<path style="fill:#39C6C4;" d="M1002.103,960.226c0,0,214.35,44.079,277.516,48.148c63.166,4.069,189.814,82.8,184.286,80.136
						c-5.528-2.664-134.195-54.536-206.174-61.955C1185.753,1019.135,1002.103,960.226,1002.103,960.226z"/>
					<path style="fill:#39C6C4;" d="M925.607,1105.913c3.825,4.619,121.626,210.54,257.338,232.032
						c135.712,21.492,218.797-13.744,218.797-13.744s-124.959,27.25-233.92-12.906
						C1058.861,1271.138,925.607,1105.913,925.607,1105.913z"/>
					<path style="fill:#39C6C4;" d="M965.577,1069.05c0,0,169.143,114.635,276.813,138.849
						c107.669,24.214,207.977,8.832,206.965,3.655c-1.011-5.177-79.807-1.048-225.425-44.259
						C1078.312,1124.085,950.399,1059.051,965.577,1069.05z"/>
					<path style="fill:#39C6C4;" d="M992.052,1024.422c0,0,230.724,39.384,278.149,53.238
						c47.426,13.854,170.861,54.601,170.861,54.601s-156.982-46.591-199.416-54.805
						C1199.212,1069.242,976.377,1028.059,992.052,1024.422z"/>
				</g>
				<path style="fill:#5DCBCF;" d="M688.151,848.815c0,0,148.762-287.732,560.883-300.481
					c202.402-6.262,326.64,123.475,326.64,123.475s72.165-259.586,0.897-369.491c-25.07-38.661-480.347-240.061-733.506-124.099
					C589.907,294.18,541.476,567.768,688.151,848.815z"/>
			</g>
			<g>
				<path style="fill:#00BCB7;" d="M988.048,952.875c66.11,20.627,133.838,35.942,202.419,45.603
					c16.181,2.28,32.406,4.251,48.662,5.907c17.684,1.801,35.517,2.837,52.962,6.419c33.8,6.941,66.727,20.699,98.132,34.7
					c16.81,7.495,33.483,15.461,49.625,24.314c15.447,8.472,30.165,18.291,41.795,31.681c0.674,0.776,1.797-0.355,1.127-1.127
					c-20.534-23.643-50.747-37.199-78.566-50.224c-30.35-14.21-61.817-27.364-94.09-36.537
					c-32.597-9.265-66.847-9.959-100.309-14.152c-35.969-4.508-71.747-10.57-107.198-18.145
					c-38.487-8.224-76.568-18.255-114.137-29.977C987.491,951.032,987.071,952.57,988.048,952.875L988.048,952.875z"/>
			</g>
			<g>
				<path style="fill:#00BCB7;" d="M930.561,1069.563c13.648,25.78,32.957,47.958,56.579,65.069c0.832,0.603,1.628-0.78,0.805-1.376
					c-23.394-16.946-42.493-38.969-56.008-64.497C931.457,1067.851,930.081,1068.656,930.561,1069.563L930.561,1069.563z"/>
			</g>
			<g>
				<path style="fill:#00BCB7;" d="M921.395,1094.606c19.322,29.89,38.787,59.977,62.893,86.307
					c25.061,27.374,55.611,48.361,85.658,69.795c29.63,21.136,58.667,43.838,92.732,57.457
					c31.63,12.646,65.593,18.303,99.474,20.238c40.052,2.287,80.177-0.471,120.113-3.495c1.016-0.077,1.025-1.671,0-1.594
					c-67.702,5.125-138.5,10.184-204.093-11.228c-35.203-11.492-64.554-32.176-94.4-53.466
					c-30.148-21.506-61.705-42.061-88.133-68.197c-28.823-28.504-50.97-62.75-72.867-96.622
					C922.216,1092.943,920.836,1093.741,921.395,1094.606L921.395,1094.606z"/>
			</g>
			<g>
				<path style="fill:#00BCB7;" d="M1031.486,1165.657c39.57,28.024,81.829,52.478,126.169,72.153
					c21.649,9.606,43.668,16.454,67.272,19.027c25.369,2.766,51.127,3.274,76.624,2.74c28.872-0.605,57.669-3.047,86.249-7.167
					c1.011-0.146,0.581-1.682-0.424-1.537c-50.293,7.25-101.491,9.299-152.172,5.318c-25.879-2.033-49.883-8.083-73.676-18.411
					c-21.316-9.253-42.111-19.818-62.375-31.18c-23.024-12.908-45.323-27.065-66.863-42.32
					C1031.451,1163.686,1030.654,1165.068,1031.486,1165.657L1031.486,1165.657z"/>
			</g>
			<g>
				<path style="fill:#00BCB7;" d="M1077.497,1075.531c69.769,26.564,140.919,49.386,213.122,68.363
					c0.993,0.261,1.416-1.276,0.424-1.537c-72.203-18.977-143.352-41.8-213.122-68.363
					C1076.961,1073.629,1076.546,1075.169,1077.497,1075.531L1077.497,1075.531z"/>
			</g>
		</g>
	</g>
	<g>
		<path style="fill:#51497A;" d="M1830.699,1800.945l-14.52,9.096c-7.646,4.79-17.82,2.453-22.61-5.193l-291.767-465.742
			c-4.79-7.646-7.66-47.862-7.66-47.862l10.281-6.441c0,0,34.912,20.144,39.702,27.79l291.767,465.742
			C1840.681,1785.981,1838.344,1796.155,1830.699,1800.945z"/>
		<g>
			<path style="fill:#51497A;" d="M1545.849,1350.796l-10.426,6.531l-92.495-147.648c-3.638-5.807-5.827-12.487-6.332-19.318
				l-6.443-87.065c-1.153-15.587-14.301-27.775-29.931-27.748l-60.562,0.109c-2.31,0.004-7.154-2.03-10.492-3.571
				c-1.56-0.72-1.721-2.871-0.298-3.835c3.952-2.678,7.163-4.89,9.608-4.894l61.722-0.111c22.05-0.039,40.596,17.154,42.224,39.142
				l6.444,87.065c0.358,4.843,1.909,9.578,4.488,13.694L1545.849,1350.796z"/>
		</g>
	</g>
	<g>
		<path style="fill:#FC8380;" d="M0.149,0H2000v168.288c0,0-84.872,31.991-214.368,71.492
			c-89.581,26.878-164.292,48.067-260.531,71.055c-4.702,1.418-129.96,31.671-259.384,51.587
			c-119.372,18.09-246.304,29.998-366.711,21.759c-213.527-14.601-441.124-71.126-645.429-141.431
			C101.053,190.297,0,143.74,0,143.74L0.149,0z"/>
		<g>
			<path style="fill:#FFFFFF;" d="M1777.871,363.866c-28.263,55.049-91.89,108.58-116.819,113.941
				c-39.039,8.398-110.747-37.852-130.26-104.524c-4.716-25.262-7.976-67.072-6.02-101.01
				c3.153-58.79,21.243-120.533,78.471-133.339c75.88-16.977,127.224,0.212,158.119,33.327c0.028,0.028,1.872,2.056,2.336,2.59
				c16.06,18.333,26.266,41.009,31.182,65.687c0,0.011,0,0.011,0,0.021C1803.252,282.423,1795.815,329.005,1777.871,363.866z"/>
		</g>
		<g>
			<path style="fill:#FFFFFF;" d="M504.181,374.483v0.011c-2.176,32.222-12.71,64.089-34.197,88.535
				c-39.778,45.246-101.884,49.025-160.444,35.928c-60.294-13.492-76.964-81.002-78.874-142.682c0-0.011,0-0.011,0-0.021
				c-1.529-49.051,6.413-91.646,6.413-91.646c4.381-14.935,11.367-28.88,20.247-41.661c0-0.011,0-0.011,0-0.011
				c0-0.011,0.011-0.011,0.011-0.021c26.585-38.168,68.639-63.139,98.951-63.798c3.776-0.094,7.486,0.195,11.063,0.966
				c27.029,5.808,98.017,67.148,122.34,125.833C500.926,313.037,506.219,344.193,504.181,374.483z"/>
		</g>
		<g>
			<path style="fill:#F2EAEB;" d="M504.425,352.983c0,23.412-21.486,64.507-34.272,84.14
				c-39.717,45.186-97.661,51.276-157.195,42.564c-70.677-10.362-81.57-111.426-81.73-114.069
				c-0.679-12.178-0.722-24.111-0.393-35.259c0-13.468,2.981-47.329,6.413-65.751c4.444-15.159,11.495-29.049,20.247-41.672
				c0-0.063,1.624-2.245,1.624-2.283c26.574-36.83,67.46-60.803,97.167-61.536c3.767-0.094,7.549,0.17,11.233,0.966
				c22.5,4.831,81.421,52.095,112.328,105.714c14.542,25.128,22.614,54.128,24.504,82.781
				C504.351,348.896,504.502,350.258,504.425,352.983z"/>
		</g>
		<g>
			<path style="fill:#F2EAEB;" d="M1797.895,263.397v0.011c-1.938,29.02-10.049,57.723-24.504,82.77
				c-30.025,52.045-88.652,100.639-112.339,105.724c-26.309,5.659-55.092,24.738-85.053-8.6
				c-3.928-4.374-19.854-47.129-23.347-51.97c0-0.076,0.031,0.101-1.614-2.283c0.389,0-12.872-16.448-20.247-41.682
				c-3.46-18.537-6.423-52.415-6.423-65.751c-0.329-11.148-0.276-23.081,0.403-35.259c0.149-2.644,11.248-102.386,81.719-114.059
				c169.284-28.039,188.612,95.554,189.427,98.521C1795.919,231.379,1798.629,252.4,1797.895,263.397z"/>
		</g>
		<g>
			<g>
				<path style="fill:#FFFFFF;" d="M2000,79.691v271.148c-69.711,34.112-186.668,21.722-190.246-4.735
					c-2.929-9.047-8.296-28.806-12.539-48.955c-21.869-103.33-6.275-153.52-6.275-156.081c9.858-44.836,34.313-77.718,79.946-87.452
					C1917.965,43.582,1965.91,45.723,2000,79.691z"/>
			</g>
		</g>
		<g>
			<g>
				<path style="fill:#F2EAEB;" d="M2000,79.691v257.102c-85.573,19.609-192.444,6.115-196.266-18.527c0,0-2.304-6.232-5.627-16.966
					c-21.464-98.103-25.93-226.627,72.779-247.684C1917.965,43.582,1965.91,45.723,2000,79.691z"/>
			</g>
		</g>
		<g>
			<g>
				<path style="fill:#FFFFFF;" d="M255.318,149.646c0,75.477-5.741,180.299-64.626,227.257
					c-36.019,28.721-83.021,29.096-127.68,19.334c-26.988-5.899-47.904-19.73-62.863-41.024V70.613
					C23.071,39.09,197.501,32.585,243.894,108.07h0.011C251.391,120.238,255.318,134.075,255.318,149.646z"/>
			</g>
		</g>
		<g>
			<g>
				<path style="fill:#F2EAEB;" d="M255.169,149.646c0,51.113-2.899,110.937-19.832,159.149
					c-38.41,63.698-102.028,75.618-175.563,59.413C34.388,362.624,14.853,350.966,0,335.136V70.613
					C6.062,50.558,157.195,9.045,232.672,93.896c7.945,8.892,10.856,14.174,11.084,14.174
					C251.121,120.041,255.169,133.84,255.169,149.646z"/>
			</g>
		</g>
		<path style="opacity:0.4;fill:#FF4F67;" d="M536.575,202.916c0,0,40.269-15.406,82.862-6.947
			c42.593,8.459,67.755,31.758,72.442,23.808c4.688-7.95-35.079-51.732-71.79-52.992
			C583.378,165.525,517.575,208.27,536.575,202.916z"/>
		<path style="opacity:0.4;fill:#FF4F67;" d="M315.893,98.464c0,0,41.891-10.201,83.076,3.564
			c41.185,13.766,63.206,40.053,68.859,32.758c5.654-7.295-28.271-55.745-64.53-61.627
			C367.041,67.277,296.37,101.377,315.893,98.464z"/>
		<path style="opacity:0.4;fill:#FF4F67;" d="M1445.354,147.515c0,0-41.329-12.28-83.151-0.589
			c-41.821,11.692-65.127,36.847-70.409,29.279c-5.282-7.568,31.02-54.264,67.526-58.328
			C1395.828,113.813,1464.708,151.399,1445.354,147.515z"/>
		<path style="opacity:0.4;fill:#FF4F67;" d="M1186.618,199.054c0,0-46.87-28.486-93.542-16.36
			c-46.673,12.126-72.099,50.533-78.277,36.707c-6.178-13.826,33.192-86.406,74.126-86.562
			C1129.859,132.682,1208.508,209.224,1186.618,199.054z"/>
		<path style="opacity:0.4;fill:#FF4F67;" d="M966.897,213.779c0,0-41.41-35.964-89.458-31.861
			c-48.047,4.103-79.572,37.686-83.336,23.017c-3.764-14.668,47.253-79.591,87.63-72.861
			C922.11,138.806,986.764,227.487,966.897,213.779z"/>
		<path style="opacity:0.4;fill:#FF4F67;" d="M1657.902,98.464c0,0-41.891-10.201-83.076,3.564
			c-41.185,13.766-63.206,40.053-68.859,32.758c-5.654-7.295,28.271-55.745,64.53-61.627
			C1606.755,67.277,1677.425,101.377,1657.902,98.464z"/>
		<path style="fill:#E4D1D5;" d="M504.181,374.493c-3.593,53.219-29.376,99.54-78.046,119.855
			c56.153-75.816,44.315-212.287,42.776-245.402v-0.255c14.425,20.608,22.528,38.115,28.199,58.096
			c3.854,13.537,6.307,27.625,7.241,41.789v0.011c0.155,2.311,0.074,4.173,0.074,4.47
			C504.991,365.789,504.181,373.442,504.181,374.493z"/>
		<g>
			<g>
				<path style="fill:#FFFFFF;" d="M738.116,332.939c0,70.004-5.654,164.992-60.527,207.743
					c-33.766,26.343-78.043,26.544-119.601,17.677c-29.302-6.237-50.733-22.292-64.52-46.226c0-0.486-9.494-14.205-15.427-41.226
					v-0.011c-8.418-38.078-5.802-79.67-0.531-118.029c4.709-32.552,12.987-67.359,19.344-86.996
					C501.978,228.056,738.116,219.042,738.116,332.939z"/>
			</g>
		</g>
		<g>
			<g>
				<path style="fill:#F2EAEB;" d="M738.116,332.939c0,17.645-0.393,36.066-1.667,54.476
					C705.91,511.306,639.18,564.894,520.138,524.798c-9.991-3.366-18.845-7.623-26.67-12.666v-0.011
					c-25.314-43.653-23.294-107.617-16.191-157.641c4.051-29.549,12.721-67.429,19.578-88.609
					C501.971,228.085,738.116,219.02,738.116,332.939z"/>
			</g>
		</g>
		<path style="fill:#E4D1D5;" d="M738.116,332.939c0,17.645-0.393,36.066-1.667,54.476
			c-13.823,56.079-37.085,107.264-79.341,132.999c44.762-59.498,18.272-264.417,18.272-264.417
			C711.268,270.053,738.116,294.541,738.116,332.939z"/>
		<g>
			<path style="fill:#FFFFFF;" d="M994.347,495.46v-0.079c-2.586-101.531-30.885-258.525-131.007-268.938
				C747.415,214.391,695.679,444.746,678.818,559.89c-0.014,0.101-2.205,15.052-3.226,24.265
				c-9.094,59.718,278.286,72.387,304.82,31.703c5.461-8.468,8.745-27.273,10.089-37.092
				C993.606,556.77,995.175,527.62,994.347,495.46z"/>
		</g>
		<g>
			<path style="fill:#F2EAEB;" d="M854.735,218.644c-125.518,0-133.563,111.99-147.955,206.081
				c-0.451,2.949,1.091-9.89-31.188,125.695c-9.083,59.677,278.255,72.431,304.82,31.703c5.443-8.359,8.676-27.239,10.089-37.091
				c2.44-17.209,3.846-41.167,3.846-49.65C995.261,461.882,985.969,218.644,854.735,218.644z"/>
		</g>
		<path style="fill:#E4D1D5;" d="M987.708,380.039c0,0-53.293,158.642-7.295,202.083c45.998,43.442,26.887-169.921,26.887-169.921
			L987.708,380.039z"/>
		<path style="fill:#E4D1D5;" d="M1575.999,443.302c-20.5-18.615-37.273-42.91-45.207-70.019c0,0-7.952-42.595-6.423-91.646
			c0-1.151-0.647-16.453,0.403-35.28C1536.068,301.516,1556.713,388.058,1575.999,443.302z"/>
		<g>
			<g>
				<g>
					<path style="fill:#FFFFFF;" d="M1548.862,462.339c0,124.526-252.03,114.74-257.579,73.353
						c-1.833-5.807-5.784-19.88-9.736-36.862c-17.468-75.498-31.777-192.387,18.803-250.593c0-0.011,0.021-0.011,0.021-0.011
						c15.023-17.331,34.123-27.657,56.175-32.477c49.358-10.787,86.178-5.765,113.602,9.81
						C1541.842,265.568,1548.862,380.422,1548.862,462.339z"/>
				</g>
			</g>
			<g>
				<g>
					<path style="fill:#F2EAEB;" d="M1548.862,462.339c0,10.293-1.743,20.535-5.712,30.301
						c-79.67,53.894-251.681,40.032-256.571,7.124c-5.177-14.854-11.683-39.345-15.501-56.1
						c-12.929-90.543,0.117-127.612,0.117-132.256c10.619-49.267,36.713-85.028,85.35-95.659
						c44.696-9.768,91.858-9.356,127.691,19.334C1541.112,280.48,1548.862,379.282,1548.862,462.339z"/>
				</g>
			</g>
			<path style="fill:#E4D1D5;" d="M1288.947,505.157c-0.282,13.386,4.141,26.415,7.496,39.24c-2.962-2.697-4.746-5.616-5.16-8.706
				c-1.833-5.807-5.784-19.88-9.736-36.862c-17.468-75.498-31.777-192.387,18.803-250.593c0-0.011,0.021-0.011,0.021-0.011
				c8.844-10.203,19.705-18.665,32.945-24.78C1315.914,269.141,1291.28,394.467,1288.947,505.157z"/>
		</g>
		<g>
			<path style="fill:#FFFFFF;" d="M1290.248,533.259c-4.401-39.691-15.447-85.189-28.194-123.565
				c-31.838-95.628-88.757-192.517-169.489-184.875c-92.691,8.778-108.529,162.859-110.569,255.749v0.189
				c-1.415,66.879,4.117,124.778,4.208,124.778c0.359,3.987,0.581,6.129,0.581,6.129c4.032,60.266,285.525,16.34,302.693-28.677
				C1292.626,574.7,1292.865,556.831,1290.248,533.259z"/>
		</g>
		<g>
			<path style="fill:#F2EAEB;" d="M1090.947,224.819c-62.469,2.986-90.873,76.137-103.239,155.22
				c-1.035-6.996-8.831,71.142-8.227,100.529c0,22.124,4.222,87.576,5.467,87.576c15.808,54.836,287.658,11.385,304.509-32.427
				c0.276-0.741,0.552-1.56,0.776-2.458C1294.976,515.359,1292.033,215.207,1090.947,224.819z"/>
		</g>
	</g>
	<g>
		<path style="fill:#51497A;" d="M172.16,1585.906l-8.148-19.389c-4.29-10.209,0.553-22.073,10.762-26.363l621.904-261.346
			c10.209-4.29,59.496,0.185,59.496,0.185l5.769,13.728c0,0-31.307,38.309-41.516,42.6l-621.904,261.346
			C188.313,1600.958,176.45,1596.115,172.16,1585.906z"/>
		<g>
			<path style="fill:#51497A;" d="M749.056,1340.258l-5.85-13.922l320.634-134.743c15.188-6.383,31.214-9.535,47.717-9.346
				c24.147,0.264,47.273,9.888,65.114,27.098l53.553,51.651l-10.484,10.868l-53.553-51.651
				c-15.057-14.523-34.518-22.644-54.796-22.866c-14.387-0.161-28.429,2.591-41.702,8.168L749.056,1340.258z"/>
		</g>
	</g>
	<polygon style="fill:#7FB9FF;" points="61.436,1480.02 30.97,1760.519 419.032,1761.514 357.837,1601.988 	"/>
	<g>
		<path style="fill:#95C5FF;" d="M593.047,1534.74c-4.559,21.783-14.684,39.327-28.13,52.326
			c-16.816,16.242-38.829,25.371-61.673,26.738c-17.021,1.021-34.514-2.273-50.64-10.138
			c-55.071-26.865-268.091-141.017-276.211-178.519c-4.903-22.639,36.952-67.342,70.853-99.2
			c22.23-20.877,41.051-36.238,41.051-36.238s234.841,129.244,292.543,209.776C590.417,1512.842,595.116,1524.87,593.047,1534.74z"
			/>
		<path style="fill:#95C5FF;" d="M655.894,1422.414c-8.9,42.571-39.047,68.964-73.752,76.791
			c-21.822,4.929-45.431,2.503-66.691-7.865c-55.071-26.865-268.09-141.017-276.199-178.519
			c-8.108-37.489,111.892-135.437,111.892-135.437s241.723,133.024,294.956,213.262
			C654.03,1402.61,657.784,1413.412,655.894,1422.414z"/>
		<path style="fill:#95C5FF;" d="M199.273,1390.644c0,0,298.793,174.438,304.749,245.025c3.058,36.252-78.212,54.506-133.279,27.651
			s-244.561-97.324-283.369-137.237C60.632,1498.582,199.273,1390.644,199.273,1390.644z"/>
		<path style="fill:#95C5FF;" d="M869.872,1356.809c-36.302,25.576-128.695-16.076-191.491-47.129
			c-26.406-13.049-47.563-24.235-57.127-27.772c-17.187-6.346-95.535-25.64-165.124-42.316
			c-61.239-14.671-115.671-27.299-115.671-27.299l44.958-123.601c0,0,201.247,18.847,310.368,83.903
			C804.892,1237.665,921.419,1320.495,869.872,1356.809z"/>
		<path style="fill:#95C5FF;" d="M385.416,1088.693l-31.845,173.22c0,0-218.676,310.444-266.201,264.171
			c-47.512-46.261-22.6-97.45,1.239-129.295c23.839-31.845,20.698-79.97,50.321-94.207c9.577-4.609,15.514-15.016,20.507-27.657
			c10.406-26.418,16.637-62.579,43.222-75.961c4.418-2.222,8.414-4.75,12.066-7.521c0,0,0-0.013,0.013-0.026
			c23.022-17.48,32.254-44.69,47.385-66.142c3.805-5.388,7.968-10.406,12.819-14.824
			C302.19,1085.654,385.416,1088.693,385.416,1088.693z"/>
		<path style="fill:#7FB9FF;" d="M678.38,1309.68c-26.406-13.049-47.563-24.235-57.127-27.772
			c-17.187-6.346-95.535-25.64-165.124-42.316c-1.111-0.817-72.398-53.948-71.364-70.419c1.047-16.599,98.089,66.793,141.502,70.432
			C569.681,1243.232,673.221,1274.732,678.38,1309.68z"/>
		<path style="fill:#7FB9FF;" d="M655.894,1422.414c-8.9,42.571-39.047,68.964-73.752,76.791
			c-46.861-52.798-128.721-112.836-128.721-112.836c13.969-2.413,76.676,52.224,139,58.544c62.324,6.32,53.667-54.267,53.667-54.267
			h0.013C654.03,1402.61,657.784,1413.412,655.894,1422.414z"/>
		<g>
			<path style="fill:#619AE5;" d="M583.588,1498.267c-53.45-54.129-112.38-102.773-175.774-144.832
				c-17.524-11.627-36.26-22.401-49.289-39.334c-0.618-0.803-2.005-0.009-1.378,0.805c10.263,13.339,23.953,22.93,37.898,32.061
				c15.933,10.432,31.716,21.061,47.166,32.201c32.065,23.119,62.88,47.97,92.275,74.401c16.448,14.79,32.432,30.087,47.974,45.826
				C583.183,1500.128,584.311,1498.999,583.588,1498.267L583.588,1498.267z"/>
		</g>
		<path style="fill:#7FB9FF;" d="M564.918,1587.066c-16.816,16.242-41.699,26.298-64.542,27.665
			c-15.054-19.434-45.254-52.709-79.795-75.968c-21.705-14.616-162.213-102.852-165.673-105.201
			c2.286,1.354,55.046,32.522,107.499,44.192c53.628,11.913,99.595,70.547,114.918,85.065
			C490.553,1575.37,548.485,1570.863,564.918,1587.066z"/>
		<g>
			<path style="fill:#619AE5;" d="M240.545,1422.862c34.346,29.301,73.462,51.973,112.289,74.698
				c34.294,20.072,69.88,39.716,100.216,65.619c17.807,15.205,33.296,32.728,46.637,51.954c0.582,0.838,1.966,0.041,1.378-0.806
				c-22.321-32.169-50.687-57.843-83.331-79.218c-36.175-23.686-74.356-44.122-111.08-66.914
				c-22.653-14.06-44.678-29.142-64.981-46.463C240.896,1421.07,239.762,1422.194,240.545,1422.862L240.545,1422.862z"/>
		</g>
		<path style="fill:#7FB9FF;" d="M194.653,1279.623c-7.942,17.238-55.722,22.958-55.722,22.958
			c9.577-4.609,15.514-15.016,20.507-27.657c7.444-8.53,15.884-16.37,23.354-18.923
			C201.663,1249.54,202.582,1262.385,194.653,1279.623z"/>
		<path style="fill:#7FB9FF;" d="M214.725,1191.442c0,0,0-0.013,0.013-0.026c23.022-17.48,32.254-44.69,47.385-66.142
			c5.848,9.385,9.602,27.759,10.7,38.37C274.316,1178.112,214.725,1191.442,214.725,1191.442z"/>
	</g>
	<g>
		<path style="fill:#95C5FF;" d="M1573.104,1590.75c-0.997,16.657,2.868,31.344,10.032,43.398
			c8.963,15.065,23.087,26.009,39.342,31.501c12.111,4.095,25.415,5.161,38.632,2.651c45.135-8.576,221.737-49.152,235.006-74.679
			c8.01-15.41-13.454-56-31.696-85.73c-11.965-19.485-22.551-34.308-22.551-34.308s-195.364,47.192-252.982,94.071
			C1579.325,1575.427,1573.554,1583.202,1573.104,1590.75z"/>
		<path style="fill:#95C5FF;" d="M1549.788,1497.103c-1.956,32.55,14.649,57.586,38.211,70.091
			c14.814,7.868,32.371,10.768,49.794,7.459c45.135-8.576,221.737-49.152,234.997-74.682
			c13.257-25.52-54.238-120.035-54.238-120.035s-201.087,48.569-255.415,96.116
			C1555.042,1483.145,1550.196,1490.219,1549.788,1497.103z"/>
		<path style="fill:#95C5FF;" d="M1886.367,1564.151c0,0-265.59,64.145-268.762,117.163c-3.172,53.018,42.877,86.118,88.006,77.548
			c45.13-8.57,199.056-53.452,234.999-74.673C1965.377,1669.567,1886.367,1564.151,1886.367,1564.151z"/>
		<path style="fill:#95C5FF;" d="M1972.581,1615.988c0,0-297.102,76.026-299.714,119.679c-2.611,43.653,52.856,63.134,87.864,48.819
			c42.182-17.248,120.576-25.999,177.485-57.005C2014.856,1685.726,1972.581,1615.988,1972.581,1615.988z"/>
		<path style="fill:#95C5FF;" d="M1407.935,1407.456c21.218,25.658,96.266,13.745,147.815,3.663
			c21.674-4.234,39.185-8.153,46.8-8.826c13.684-1.202,74.164,0.289,127.792,1.946c47.192,1.461,89.058,3.058,89.058,3.058
			l-8.153-98.275c0,0-149.296-26.046-241.059-0.499C1478.432,1334.08,1377.806,1371.024,1407.935,1407.456z"/>
		<path style="fill:#95C5FF;" d="M1811.248,1309.022l-11.117,131.584c0,0,96.979,267.687,140.482,243.583
			c43.49-24.097,35.563-66.039,24.596-93.775c-10.966-27.736,0.795-61.93-17.828-78.07c-6.019-5.223-8.262-13.921-9.381-24.05
			c-2.319-21.163,0.303-48.549-16.29-63.471c-2.758-2.478-5.15-5.095-7.246-7.819c0,0,0.003-0.009-0.004-0.021
			c-13.207-17.184-14.521-38.688-21.237-57.189c-1.69-4.648-3.712-9.099-6.351-13.251
			C1872.051,1323.233,1811.248,1309.022,1811.248,1309.022z"/>
		<path style="fill:#7FB9FF;" d="M1555.75,1411.119c21.674-4.234,39.185-8.153,46.8-8.826c13.684-1.202,74.164,0.289,127.792,1.946
			c0.965-0.372,63.009-24.751,65.508-36.87c2.515-12.214-84.126,28.977-116.248,23.05
			C1647.483,1384.483,1566.372,1386.855,1555.75,1411.119z"/>
		<g>
			<path style="fill:#619AE5;" d="M1901.089,1666.125c-77.82,20.493-153.078,50.031-224.064,87.936
				c-0.68,0.363-0.076,1.396,0.604,1.033c70.898-37.858,146.056-67.349,223.779-87.815
				C1902.151,1667.083,1901.836,1665.928,1901.089,1666.125L1901.089,1666.125z"/>
		</g>
		<path style="fill:#7FB9FF;" d="M1549.788,1497.103c-1.956,32.55,14.649,57.586,38.211,70.091
			c44.309-28.954,115.363-56.245,115.363-56.245c-9.629-4.5-65.763,22.66-112.094,14.944c-46.331-7.716-28.122-49.837-28.122-49.837
			l-0.009-0.002C1555.042,1483.145,1550.196,1490.219,1549.788,1497.103z"/>
		<g>
			<path style="fill:#619AE5;" d="M1587.737,1567.267c32.645-18.92,66.519-35.683,101.431-50.005
				c16.803-6.893,33.831-13.237,51.052-19.01c16.079-5.39,32.98-9.579,46.758-19.927c0.608-0.457,0.013-1.496-0.604-1.033
				c-14.529,10.912-32.642,15.102-49.57,20.852c-17.541,5.958-34.883,12.504-51.982,19.63
				c-33.588,13.997-66.208,30.215-97.689,48.46C1586.467,1566.619,1587.069,1567.654,1587.737,1567.267L1587.737,1567.267z"/>
		</g>
		<path style="fill:#7FB9FF;" d="M1583.136,1634.148c8.963,15.065,24.979,27.245,41.235,32.738
			c14.722-11.09,43.129-29.207,72.701-39.222c18.583-6.294,137.622-42.419,140.588-43.436c-1.92,0.528-46.232,12.673-86.477,10.773
			c-41.143-1.956-85.956,31.396-99.902,38.877C1639.237,1640.349,1598.219,1625.667,1583.136,1634.148z"/>
		<g>
			<path style="fill:#619AE5;" d="M1849.561,1578.283c-39.975,18.78-83.492,28.072-125.762,40.118
				c-17.143,4.885-34.269,10.005-50.61,17.203c-17.881,7.876-34.269,18.331-49.241,30.858c-0.591,0.495,0.259,1.337,0.846,0.846
				c63.779-53.363,152.252-53.642,225.371-87.992C1850.861,1578.989,1850.254,1577.957,1849.561,1578.283L1849.561,1578.283z"/>
		</g>
		<path style="fill:#7FB9FF;" d="M1911.599,1484.75c2.347,14.036,35.783,27.594,35.783,27.594
			c-6.019-5.223-8.262-13.921-9.381-24.05c-3.703-7.638-8.263-14.973-13.163-18.294
			C1912.459,1461.606,1909.262,1470.717,1911.599,1484.75z"/>
		<path style="fill:#7FB9FF;" d="M1914.465,1417.004c0,0,0.003-0.009-0.004-0.021c-13.207-17.184-14.521-38.688-21.237-57.189
			c-6.081,5.636-12.419,18.187-15.306,25.646C1873.986,1395.611,1914.465,1417.004,1914.465,1417.004z"/>
	</g>
	<g>
		<linearGradient id="SVGID_1_" gradientUnits="userSpaceOnUse" x1="1000" y1="2134.1182" x2="1000" y2="1655.6775">
			<stop  offset="0" style="stop-color:#F9A992"/>
			<stop  offset="0.74" style="stop-color:#FC9493"/>
		</linearGradient>
		<path style="fill:url(#SVGID_1_);" d="M0,2134.118h2000v-208.153c0,0-653.85-304.851-1100.989-267.041
			C451.871,1696.735,0,1956.328,0,1956.328V2134.118z"/>
		<g>
			<path style="fill:#FFFFFF;" d="M1004.78,1625.81c-1.639,67.961-19.408,180.35-86.611,187.73
				c-58.256,6.395-90.059-85.714-104.432-142.535c-9.202-35.751-16.823-79.825-19.692-107.162
				c-6.017-41.717,183.994-50.506,201.522-22.13c3.622,5.931,5.789,19.105,6.67,25.891
				C1005.579,1592.606,1004.78,1616.926,1004.78,1625.81z"/>
		</g>
		<g>
			<path style="fill:#F2EAEB;" d="M912.479,1818.984c-82.982,0-88.301-78.174-97.815-143.853c-0.363-2.506,0.671,6.682-20.619-87.74
				c-6.022-41.778,187.517-51.245,202.252-20.788c0,0.189,0.988,1.652,2.269,6.016c0.091,0,2.131,7.195,3.671,18.533
				c1.616,12.036,2.543,28.755,2.543,34.658C1005.384,1649.194,999.24,1818.984,912.479,1818.984z"/>
		</g>
		<g>
			<path style="fill:#FFFFFF;" d="M1068.643,1812.275c-48.62-4.823-64.17-72.403-69.93-121.01
				c-2.447-20.732-3.763-46.802-3.763-57.646c-0.665-32.94,0.999-69.224,3.192-91.379c2.688-42.075,190.299-11.4,201.739,20.018
				C1211.427,1594.096,1165.513,1821.879,1068.643,1812.275z"/>
		</g>
		<g>
			<path style="fill:#F2EAEB;" d="M1191.342,1681.025c-2.36,9.965,10.243,137.96-122.699,131.25
				c-41.3-2.084-60.078-53.147-68.253-108.35c-0.634,4.525-5.439-43.967-5.439-70.305c0.489-23.617,1.964-46.366,3.192-58.382
				c0.057-0.902,0.206-1.771,0.422-2.607c0-0.011,0-0.011,0-0.011c10.442-38.239,190.164-7.981,201.316,22.636
				c0.182,0.517,0.365,1.089,0.513,1.716C1203.531,1609.465,1200.452,1642.737,1191.342,1681.025z"/>
		</g>
		<g>
			<path style="fill:#FFFFFF;" d="M813.061,1678.893c0,52.49-7.585,131.68-57.13,148.128
				c-114.044,37.884-143.202-74.838-143.202-195.119c0-5.149,0.51-9.991,1.486-14.566c0-0.016,0-0.011,0-0.021
				c17.615-83.145,186.469-74.452,190.331-43.466C804.546,1573.939,813.111,1623.272,813.061,1678.893z"/>
		</g>
		<g>
			<path style="fill:#F2EAEB;" d="M811.384,1718.738c-4.47,49.794-18.93,96.158-55.453,108.283
				c-52.106,17.306-93.284,5.342-117.997-45.165c-0.404,7.039-5.818,11.881-5.945,11.881c-8.886-23.262-13.94-50.442-16.616-77.759
				c-1.377-14.023-3.91-55.033-1.975-68.352c12.153-88.113,187.245-79.736,191.149-48.159c0,0.825,7.038,38.819,8.366,91.551
				C812.912,1699.073,811.384,1718.643,811.384,1718.738z"/>
		</g>
		<path style="fill:#FF4F67;" d="M1661.254,2134.118H306.651c-1.465,0,35.662-60.273,120.057-115.163
			c101.276-65.868,270.628-123.985,523.057-60.889c13.282,3.323,27.137,3.652,40.546,0.924
			c82.887-16.86,401.281-70.2,579.604,62.608C1607.946,2049.915,1639.606,2086.702,1661.254,2134.118z"/>
		<path style="fill:#E93A5B;" d="M1661.254,2134.118H306.651c-1.465,0,35.662-60.273,120.057-115.163
			c56.854,18.346,284.111,85.149,588.023,88.811c293.497,3.535,495.719-63.596,555.185-86.168
			C1607.946,2049.915,1639.606,2086.702,1661.254,2134.118z"/>
		<path style="opacity:0.4;fill:#FF4F67;" d="M847.69,1824.647c0,0,29.728,20.526,63.702,17.695
			c33.974-2.831,55.916-22.65,58.747-14.156c2.831,8.494-32.559,46.715-61.225,43.176
			C880.249,1867.822,833.468,1816.861,847.69,1824.647z"/>
		<path style="opacity:0.4;fill:#FF4F67;" d="M1006.793,1824.647c0,0,29.728,20.526,63.702,17.695
			c33.974-2.831,55.916-22.65,58.747-14.156s-32.559,46.715-61.225,43.176C1039.351,1867.822,992.571,1816.861,1006.793,1824.647z"
			/>
		<path style="opacity:0.4;fill:#FF4F67;" d="M668.943,1852.772c0,0,31.997,16.771,65.377,9.843
			c33.381-6.929,52.758-29.26,56.598-21.173s-26.656,50.317-55.54,50.279C706.495,1891.683,653.882,1846.768,668.943,1852.772z"/>
		<path style="opacity:0.4;fill:#FF4F67;" d="M480.417,1894.968c0,0,41.329,12.28,83.15,0.589
			c41.821-11.692,65.127-36.847,70.409-29.279c5.282,7.568-31.02,54.264-67.526,58.328
			C529.943,1928.669,461.063,1891.083,480.417,1894.968z"/>
		<path style="opacity:0.4;fill:#FF4F67;" d="M280.392,1944.019c0,0,41.891,10.201,83.076-3.564
			c41.185-13.766,63.206-40.053,68.859-32.758c5.654,7.295-28.271,55.745-64.53,61.627
			C331.539,1975.205,260.868,1941.106,280.392,1944.019z"/>
		<path style="opacity:0.4;fill:#FF4F67;" d="M79.745,2063.212c0,0,52.484,5.41,100.13-18.12
			c47.647-23.53,69.978-59.06,78.045-51.154c8.066,7.905-25.017,72.282-68,85.435C146.937,2092.527,55.591,2062.923,79.745,2063.212
			z"/>
		<path style="opacity:0.4;fill:#FF4F67;" d="M1305.708,1852.772c0,0-31.996,16.771-65.377,9.843
			c-33.381-6.929-52.758-29.26-56.598-21.173c-3.84,8.088,26.656,50.317,55.54,50.279
			C1268.155,1891.683,1320.769,1846.768,1305.708,1852.772z"/>
		<path style="opacity:0.4;fill:#FF4F67;" d="M1538.702,1899.425c0,0-41.329,12.281-83.151,0.589
			c-41.821-11.692-65.127-36.847-70.409-29.279c-5.282,7.568,31.02,54.264,67.527,58.328
			C1489.176,1933.126,1558.055,1895.541,1538.702,1899.425z"/>
		<path style="opacity:0.4;fill:#FF4F67;" d="M1712.757,1962.491c0,0-41.891,10.201-83.076-3.564
			c-41.185-13.766-63.206-40.053-68.859-32.758c-5.654,7.295,28.271,55.745,64.53,61.627
			C1661.609,1993.677,1732.28,1959.578,1712.757,1962.491z"/>
		<path style="opacity:0.4;fill:#FF4F67;" d="M1915.804,2059.29c0,0-52.484,5.41-100.13-18.12
			c-47.647-23.53-69.978-59.06-78.044-51.154c-8.066,7.905,25.017,72.282,68,85.435
			C1848.612,2088.605,1939.958,2059.001,1915.804,2059.29z"/>
		<path style="fill:#E4D1D5;" d="M684.351,1828.996c-20.767-8.26-35.726-25.29-46.418-47.139
			c-0.404,7.039-5.818,11.881-5.945,11.881c-8.886-23.262-13.94-50.442-16.616-77.759l19.843-41.247
			C635.216,1674.731,644.803,1792.41,684.351,1828.996z"/>
		<g>
			<g>
				<path style="fill:#FFFFFF;" d="M638.518,1729.451c0,59.753-13.299,130.379-71.548,143.722
					c-53.662,12.295-109.443,8.305-145.134-33.284c-37.05-43.68-38.93-111.952-17.826-164.192
					c21.386-53.086,85.421-111.078,110.682-116.639c35.288-7.776,100.141,34.977,117.849,96.891
					C632.54,1655.949,638.549,1689,638.518,1729.451z"/>
			</g>
		</g>
		<g>
			<g>
				<path style="fill:#F2EAEB;" d="M567.79,1874.182c-53.395,13.405-110.263,7.296-145.955-34.293
					c-1.71,7.931-3.918,15.575-6.721,22.816c-33.844-48.002-31.532-123.266-0.849-176.285
					c27.498-47.426,79.298-91.211,100.426-95.861c26.978-5.946,70.964,17.539,98.197,56.344c0.306,0.414,1.005,1.434,1.327,1.911
					c0,0,0,0,0,0.011c7.942,11.679,14.333,24.663,18.325,38.625C655.319,1812.706,609.214,1863.782,567.79,1874.182z"/>
			</g>
		</g>
		<path style="fill:#E4D1D5;" d="M476.555,1874.182c-23.145-6.445-41.226-18.569-54.72-34.293
			c-1.71,7.931-3.918,15.575-6.721,22.816c-3.705-5.255-6.965-10.819-9.799-16.637v-0.011c-0.796-1.624-1.55-3.27-2.272-4.937
			c1.624-6.784,3.281-14.057,4.905-21.478c8.217-37.436,15.756-78.587,15.756-78.587S428.418,1842.501,476.555,1874.182z"/>
		<g>
			<path style="fill:#FFFFFF;" d="M349.512,1920.95c-35.969,7.862-74.082,8.036-104.089-13.303
				c-53.626-38.137-58.871-129.364-58.871-195.65c0-13.365,3.365-24.874,9.672-35.227h0.011
				c41.725-67.779,204.547-57.449,208.582-26.935c5.45,17.326,13.516,51.86,17.699,82.027c0.011,0.064,0.021,0.117,0.021,0.181
				C433.505,1811.167,427.536,1903.887,349.512,1920.95z"/>
		</g>
		<g>
			<path style="fill:#F2EAEB;" d="M385.472,1904.504c-9.768,7.634-21.638,13.314-35.96,16.446
				c-33.832,7.396-70.24,8.124-99.683-10.362c0,1.198-3.254,17.76-6.455,27.636c-68.891-29.855-75.933-129.493-75.933-205.216
				c0-105.6,213.633-97.178,218.265-62.163c9.331,29.664,17.72,78.406,17.72,82.208
				C410.043,1800.723,411.914,1864.258,385.472,1904.504z"/>
		</g>
		<path style="fill:#E4D1D5;" d="M293.146,1925.037c-16.966-1.848-31.278-6.891-43.317-14.45c0,0.021,0,0.021,0,0.021
			c-1.508,9.109-3.525,17.985-6.126,26.532l-2.208,0.244l-7.464,0.839c0,0,0.011-1.656,0.043-4.629
			c0.297-30.365,2.325-197.508,10.808-122.658C252.08,1874.479,280.597,1911.522,293.146,1925.037z"/>
		<g>
			<path style="fill:#FFFFFF;" d="M249.829,1910.588c0,0.021,0,0.021,0,0.021c-9.201,55.577-36.281,97.761-90.669,111.585
				c-32.393,8.26-59.562,11.297-82.345,10.076c-0.011,0-0.021,0-0.021,0c-29.783-1.608-56.391-10.593-76.793-32.201v-298.561
				c53.722-35.928,147.821-38.359,196.224-24.738h0.011c10.6,2.886,25.386,7.963,30.588,20.682
				c9.58,29.169,19.185,78.096,19.185,80.976C260.404,1863.525,249.829,1907.906,249.829,1910.588z"/>
		</g>
		<g>
			<path style="fill:#F2EAEB;" d="M250.434,1902.859c0,0.011,0,0.011,0,0.011c-7.711,58.739-34.638,104.789-91.826,119.324
				c-32.393,8.26-59.562,11.297-82.346,10.076c-0.011,0-0.021,0-0.021,0c-29.095-1.55-56.353-10.503-76.241-31.628v-271.349
				c72.454-48.148,211.865-36.708,224.348-3.981c2.411,7.198,6.881,23.466,8.653,30.779
				C244.538,1801.741,253.124,1858.306,250.434,1902.859z"/>
		</g>
		<path style="fill:#E4D1D5;" d="M60.836,2030.698c-11.944-1.826-22.508-4.99-31.84-9.322c-8.961-4.151-16.786-9.364-23.612-15.49
			c-1.869-1.678-3.674-3.429-5.383-5.245v-102.613C0.265,1915.833,4.395,2004.378,60.836,2030.698z"/>
		<g>
			<g>
				<path style="fill:#FFFFFF;" d="M1186.939,1680.22c0,4.013,0.043,8.058,0.149,12.124v0.085c0.064,2.909,0.17,5.829,0.297,8.748
					c0.266,6.285,0.669,12.571,1.231,18.813c0,0.053,0,0.074,0,0.074c4.47,49.794,18.93,96.158,55.453,108.283
					c61.844,20.544,97.655-3.578,117.997-45.165c0.892-1.815,1.741-3.652,2.569-5.531v-0.011c1.189-2.676,2.304-5.404,3.376-8.196
					c13.165-34.474,17.911-77.525,18.994-116.893c0-0.011,0-0.011,0-0.021c0.042-1.433,0.074-2.877,0.106-4.3
					c0.106-5.075,0.159-10.086,0.159-15.002c0-5.149-0.51-9.991-1.486-14.566c0-0.011,0-0.011,0-0.011v-0.011
					c-15.437-72.865-146.982-75.19-181.912-53.818c-4.937,3.026-7.942,6.519-8.419,10.352c0,0.011-0.011,0.021-0.011,0.032
					c-0.042,0.233-0.265,1.571-0.616,3.875c-1.263,8.122-4.13,28.22-6.041,53.711c-0.308,4.247-0.605,8.621-0.86,13.133v0.117
					C1187.321,1656.884,1186.928,1668.414,1186.939,1680.22z"/>
			</g>
			<g>
				<path style="fill:#F2EAEB;" d="M1188.617,1720.066c4.47,49.794,18.93,96.158,55.453,108.283
					c52.107,17.306,93.284,5.342,117.997-45.165c0.403,7.039,5.818,11.88,5.946,11.88c8.886-23.262,13.94-50.441,16.616-77.759
					c1.377-14.023,3.911-55.033,1.975-68.352c-12.152-88.113-187.245-79.736-191.149-48.159c0,0.822-7.038,38.827-8.366,91.55
					C1187.088,1700.401,1188.617,1719.97,1188.617,1720.066z"/>
			</g>
			<path style="fill:#E4D1D5;" d="M1315.649,1830.323c20.767-8.26,35.726-25.29,46.418-47.14c0.403,7.039,5.818,11.88,5.946,11.88
				c8.886-23.262,13.94-50.441,16.616-77.759l-19.843-41.247C1364.785,1676.058,1355.197,1793.737,1315.649,1830.323z"/>
			<g>
				<g>
					<path style="fill:#FFFFFF;" d="M1361.483,1730.778c0,59.751,13.299,130.38,71.548,143.723
						c53.662,12.295,109.443,8.305,145.134-33.284c37.049-43.685,38.928-111.958,17.826-164.192
						c-21.386-53.086-85.42-111.078-110.682-116.639c-35.287-7.776-100.141,34.977-117.849,96.891
						C1367.46,1657.276,1361.451,1690.327,1361.483,1730.778z"/>
				</g>
			</g>
			<g>
				<g>
					<path style="fill:#F2EAEB;" d="M1361.483,1762.268c0,6.806,5.202,36.236,6.423,33.061
						c8.536,37.627,27.212,70.486,65.125,79.171c53.662,12.295,109.443,8.305,145.134-33.284c1.709,7.931,3.918,15.575,6.721,22.816
						c34.006-48.232,31.363-123.557,0.849-176.285c-27.498-47.426-79.298-91.211-100.426-95.861
						c-26.978-5.945-70.964,17.539-98.197,56.344c-0.306,0.414-1.003,1.431-1.327,1.911c0.385,0-11.567,15-18.325,38.635
						C1364.445,1705.355,1361.483,1734.739,1361.483,1762.268z"/>
				</g>
			</g>
			<path style="fill:#E4D1D5;" d="M1523.445,1875.509c23.145-6.445,41.226-18.569,54.72-34.293
				c1.709,7.931,3.918,15.575,6.721,22.816c3.705-5.255,6.965-10.818,9.799-16.637v-0.011c0.796-1.624,1.55-3.27,2.272-4.937
				c-1.625-6.784-3.281-14.057-4.905-21.478c-8.218-37.436-15.756-78.587-15.756-78.587S1571.583,1843.828,1523.445,1875.509z"/>
			<g>
				<path style="fill:#FFFFFF;" d="M1650.488,1922.277c35.966,7.861,74.083,8.036,104.089-13.303
					c53.626-38.137,58.871-129.364,58.871-195.65c0-13.365-3.364-24.874-9.672-35.227h-0.011
					c-41.725-67.779-204.547-57.449-208.582-26.935c-9.373,29.797-17.72,78.404-17.72,82.208
					C1566.495,1812.494,1572.465,1905.214,1650.488,1922.277z"/>
			</g>
			<g>
				<path style="fill:#F2EAEB;" d="M1614.528,1905.831c9.768,7.634,21.638,13.314,35.96,16.446
					c33.83,7.395,70.239,8.124,99.683-10.362c0,1.196,3.248,17.735,6.455,27.636c68.942-29.876,75.933-129.661,75.933-205.216
					c0-105.608-213.634-97.174-218.265-62.163c-9.353,29.737-17.72,78.381-17.72,82.207
					C1589.957,1802.05,1588.086,1865.585,1614.528,1905.831z"/>
			</g>
			<path style="fill:#E4D1D5;" d="M1706.854,1926.365c16.966-1.848,31.278-6.891,43.317-14.45c0,0.412,2.223,13.73,6.126,26.553
				c2.949,0.326,0.906,0.098,9.672,1.083c-0.428-67.078-3.245-194.399-10.851-127.287
				C1747.921,1875.806,1719.403,1912.849,1706.854,1926.365z"/>
			<g>
				<path style="fill:#FFFFFF;" d="M1749.014,1904.186c0,0.458,1.157,7.725,1.157,7.729c0,0.021,0,0.021,0,0.021
					c9.201,55.577,36.281,97.761,90.669,111.585c32.392,8.26,59.561,11.297,82.345,10.076c0.011,0,0.021,0,0.021,0
					c29.783-1.608,56.391-10.593,76.793-32.201v-298.561c-53.722-35.928-147.821-38.359-196.224-24.738h-0.011
					c-10.606,2.886-29.131,9.748-30.587,20.682c-9.577,29.156-19.185,78.097-19.185,80.976
					C1747.149,1820.214,1743.668,1863.49,1749.014,1904.186z"/>
			</g>
			<g>
				<path style="fill:#F2EAEB;" d="M1749.566,1904.186c0,0.011,0,0.011,0,0.011c7.711,58.739,34.638,104.789,91.826,119.324
					c32.393,8.26,59.561,11.297,82.345,10.076c0.011,0,0.021,0,0.021,0c29.095-1.55,56.351-10.502,76.241-31.628v-271.349
					c-72.454-48.148-220.183-35.153-224.348-3.981c-2.408,7.191-6.879,23.458-8.653,30.779
					C1755.599,1802.529,1746.855,1859.275,1749.566,1904.186z"/>
			</g>
			<path style="fill:#E4D1D5;" d="M1938.416,2032.14c11.944-1.826,22.705-4.312,32.037-8.644
				c11.642-5.394,21.222-12.465,29.547-21.308v-102.04C1999.735,1917.953,1994.856,2005.821,1938.416,2032.14z"/>
		</g>
	</g>
	<g>
		<g>
			<path style="opacity:0.5;fill:#FFFFFF;" d="M1184.3,1508.617c-6.84-22.762-11.807-45.049-14.961-66.283l-0.001-0.02
				c-7.956-53.514-4.503-100.473,8.97-132.508c10.109-24.051,25.867-39.691,46.68-43.369
				c58.881-10.43,136.121,78.933,173.613,200.212c0.41,1.276,0.799,2.572,1.189,3.867c10.419,34.693,16.472,68.231,18.42,98.713
				c5.083,77.809-16.354,135.893-59.108,143.468C1299.592,1723.212,1221.323,1631.847,1184.3,1508.617z"/>
			<path style="opacity:0.5;fill:#FFFFFF;" d="M1184.3,1508.617c-6.84-22.762-11.807-45.049-14.961-66.283l248.871,126.894
				c5.083,77.809-16.354,135.893-59.108,143.468C1299.592,1723.212,1221.323,1631.847,1184.3,1508.617z"/>
			<path style="opacity:0.5;fill:#FFFFFF;" d="M1398.601,1466.648l-220.293-156.842c10.109-24.051,25.867-39.691,46.68-43.369
				C1283.869,1256.006,1361.109,1345.369,1398.601,1466.648z"/>
		</g>
		<g>
			<path style="fill:#51497A;" d="M1349.561,1720.588c-28.746,0.002-60.856-19.218-91.66-55.18
				c-33.643-39.276-62.188-94.239-80.377-154.76c-13.187-43.874-19.915-87.569-19.458-126.359c0.45-38.38,7.876-70.34,21.475-92.426
				c11.111-18.044,26.398-29.247,44.21-32.396c31.349-5.542,67.721,13.724,102.431,54.245
				c33.643,39.277,62.188,94.24,80.377,154.761c13.187,43.874,19.915,87.569,19.459,126.359c-0.45,38.38-7.876,70.34-21.475,92.426
				c-11.111,18.044-26.399,29.247-44.21,32.396l0,0C1356.804,1720.278,1353.207,1720.587,1349.561,1720.588z M1234.324,1272.698
				c-2.768,0-5.472,0.23-8.11,0.697c-13.917,2.461-25.567,11.169-34.628,25.885c-25.644,41.646-25.846,123.016-0.515,207.297
				c17.635,58.678,45.183,111.818,77.573,149.632c30.87,36.039,63.408,54.086,89.226,49.518
				c13.917-2.461,25.568-11.17,34.628-25.885c25.644-41.646,25.845-123.016,0.515-207.297
				c-17.635-58.678-45.183-111.817-77.573-149.631C1287.723,1290.555,1258.669,1272.698,1234.324,1272.698z"/>
		</g>
	</g>
</g>
</svg>
